<svg xmlns="http://www.w3.org/2000/svg" width="21" height="21" viewBox="0 0 21 21">
    <path fill="#FFF" fill-rule="evenodd" d="M16.06 16.803a2.127 2.127 0 0 0-1.487-.594c-.562 0-1.041.198-1.438.594a1.958 1.958 0 0 0-.594 1.438c0 .562.198 1.049.594 1.462.397.413.876.62 1.438.62.562 0 1.049-.207 1.462-.62.413-.413.62-.9.62-1.462 0-.562-.199-1.041-.595-1.438zM20.62 0h-3.37l-.942 2.082H1.04c-.264 0-.504.099-.719.297-.215.199-.322.43-.322.694 0 .198.033.364.1.496l3.717 6.394c.363.727.958 1.09 1.784 1.09h7.683l1.041 1.587c.066.165.1.264.1.297 0 .165-.084.248-.249.248H2.38v1.983h12.045c.661 0 1.198-.182 1.611-.546.413-.363.62-.875.62-1.536 0-.397-.083-.727-.248-.992L14.87 9.566l3.668-7.484h2.082V0zM5.899 16.803a1.958 1.958 0 0 0-1.438-.594c-.562 0-1.05.198-1.462.594a1.92 1.92 0 0 0-.62 1.438c0 .562.207 1.049.62 1.462.413.413.9.62 1.462.62a1.92 1.92 0 0 0 1.438-.62c.396-.413.594-.9.594-1.462 0-.562-.198-1.041-.594-1.438z"/>
</svg>
