<?xml version="1.0" encoding="UTF-8"?>
<svg width="22px" height="22px" viewBox="0 0 22 22" version="1.1" xmlns="http://www.w3.org/2000/svg" xmlns:xlink="http://www.w3.org/1999/xlink">
    <!-- Generator: sketchtool 50.2 (55047) - http://www.bohemiancoding.com/sketch -->
    <title>CDC53011-EB9B-41AD-BF83-1AF6DCD560E6</title>
    <desc>Created with sketchtool.</desc>
    <defs></defs>
    <g id="UI-NEW" stroke="none" stroke-width="1" fill="none" fill-rule="evenodd">
        <g id="Webbuilder-edit_Search-2" transform="translate(-932.000000, -533.000000)">
            <g id="Rectangle-14-Copy" transform="translate(907.000000, 521.000000)">
                <g id="close-(1)" transform="translate(-58.000000, 13.000000)">
                    <g id="close" transform="translate(84.000000, 0.000000)">
                        <path d="M10.7782619,10.0000917 L14.2387526,6.53945673 C14.4537491,6.32463466 14.4537491,5.97607622 14.2387526,5.76125414 C14.023756,5.54624862 13.675579,5.54624862 13.4605824,5.76125414 L10.0000917,9.22188914 L6.53941756,5.76125414 C6.324421,5.54624862 5.97624398,5.54624862 5.76124742,5.76125414 C5.54625086,5.97607622 5.54625086,6.32463466 5.76124742,6.53945673 L9.22192158,10.0000917 L5.76124742,13.4607267 C5.54625086,13.6755488 5.54625086,14.0241072 5.76124742,14.2389293 C5.8687457,14.3462486 6.00963082,14.4 6.15033249,14.4 C6.29103417,14.4 6.43191928,14.3462486 6.53941756,14.2387459 L10.0000917,10.7781109 L13.4605824,14.2387459 C13.5680807,14.3462486 13.7089658,14.4 13.8496675,14.4 C13.9903692,14.4 14.1312543,14.3462486 14.2387526,14.2387459 C14.4537491,14.0239238 14.4537491,13.6753653 14.2387526,13.4605433 L10.7782619,10.0000917 Z" id="Shape" fill="#0077B5" fill-rule="nonzero"></path>
                        <circle id="Oval-5" stroke="#0077B5" cx="10" cy="10" r="10"></circle>
                    </g>
                </g>
            </g>
        </g>
    </g>
</svg>