<svg xmlns="http://www.w3.org/2000/svg" width="17" height="18" viewBox="0 0 17 18">
    <path fill="#FFF" fill-rule="evenodd" d="M13.976 14.903c1.85.698 2.774 1.605 2.774 2.722H0c0-1.117.925-2.024 2.774-2.722.28-.105.698-.2 1.256-.288.559-.087.89-.148.995-.183.593-.174.942-.331 1.047-.471l.052-2.146a5.901 5.901 0 0 1-.47-.942l-.367-1.675c-.245 0-.402-.21-.471-.628a5.589 5.589 0 0 0-.184-.733c-.087-.28-.13-.506-.13-.68a.93.93 0 0 1 .052-.341.331.331 0 0 1 .157-.183h.052c-.14-.454-.227-1.187-.261-2.199-.035-.942.296-1.77.994-2.486C6.194 1.233 7.154.875 8.375.875s2.181.358 2.879 1.073 1.03 1.544.994 2.486l-.261 2.199c.174.035.261.21.261.523 0 .07-.104.559-.314 1.466a1.168 1.168 0 0 1-.157.419.592.592 0 0 1-.209.209h-.105c-.14.803-.261 1.343-.366 1.623l-.471.942c-.07 1.291-.053 2.006.052 2.146.105.14.454.297 1.047.471.105.035.436.096.995.183.558.087.977.183 1.256.288z"/>
</svg>
