<?xml version="1.0" encoding="UTF-8"?>
<svg width="22px" height="22px" viewBox="0 0 22 22" version="1.1" xmlns="http://www.w3.org/2000/svg" xmlns:xlink="http://www.w3.org/1999/xlink">
    <!-- Generator: sketchtool 50.2 (55047) - http://www.bohemiancoding.com/sketch -->
    <title>9CBD7EFF-6A74-4FDE-850E-24E8C303C12B</title>
    <desc>Created with sketchtool.</desc>
    <defs></defs>
    <g id="UI-NEW" stroke="none" stroke-width="1" fill="none" fill-rule="evenodd">
        <g id="Webbuilder-edit_Search-2" transform="translate(-962.000000, -533.000000)">
            <g id="Rectangle-14-Copy" transform="translate(907.000000, 521.000000)">
                <g id="close-(1)" transform="translate(-58.000000, 13.000000)">
                    <g id="question" transform="translate(114.000000, 0.000000)">
                        <path d="M9.63074284,12.2168156 C9.49263176,12.2168156 9.37293729,12.1753829 9.27165583,12.0925163 C9.17037437,12.0096496 9.1197344,11.866937 9.1197344,11.6643741 C9.1197344,11.3052852 9.22561797,10.8955619 9.4373883,10.4351916 C9.64915862,9.97482133 9.9760166,9.53747614 10.4179721,9.1231429 C10.620535,8.92978739 10.7908694,8.76175476 10.9289805,8.61903998 C11.0670916,8.4763252 11.1775788,8.33591438 11.2604454,8.1978033 C11.3433121,8.05969222 11.4031593,7.91237594 11.4399889,7.75585005 C11.4768186,7.59932416 11.4952331,7.41517882 11.4952331,7.2034085 C11.4952331,6.71541602 11.3502186,6.34942715 11.0601854,6.10543091 C10.7701521,5.86143467 10.3857487,5.73943838 9.90696362,5.73943838 C9.67677849,5.73943838 9.46270952,5.77166381 9.26475031,5.83611565 C9.0667911,5.90056749 8.89415484,5.99033834 8.74683635,6.10543091 C8.59951787,6.22052347 8.48212521,6.36323612 8.39465486,6.53357311 C8.30718451,6.70391011 8.25884636,6.89035727 8.24963895,7.09292019 C8.24043155,7.25865348 8.18058431,7.38295159 8.07009545,7.46581824 C7.95960659,7.54868488 7.83070484,7.59011759 7.68338636,7.59011759 C7.36112718,7.58091018 7.2,7.42899027 7.2,7.1343533 C7.2,6.79367931 7.27365814,6.48063222 7.42097662,6.19520266 C7.56829511,5.9097731 7.76625135,5.6634787 8.01485129,5.45631208 C8.26345124,5.24914546 8.55348015,5.08801829 8.88494674,4.97292572 C9.21641333,4.85783316 9.57089312,4.80028774 9.94839673,4.80028774 C10.7310262,4.79108033 11.3548185,5.00284748 11.8197925,5.43559552 C12.2847665,5.86834357 12.51725,6.48523047 12.51725,7.28627473 C12.5080426,7.65457094 12.4228753,7.99984346 12.2617457,8.32210265 C12.1006162,8.64436183 11.8220963,8.99884162 11.4261779,9.38555264 C11.1591631,9.64335999 10.9404905,9.86663621 10.7701535,10.055388 C10.5998165,10.2441398 10.468613,10.4213797 10.3765389,10.587113 C10.2844649,10.7528463 10.2223158,10.9185771 10.1900899,11.0843104 C10.157864,11.2500437 10.1417513,11.4433963 10.1417513,11.6643741 C10.1417513,12.0326703 9.97141684,12.2168156 9.63074284,12.2168156 Z M9.64455388,15.2 C9.44199096,15.2 9.2693547,15.1263419 9.12663992,14.9790234 C8.98392514,14.8317049 8.91256882,14.6613705 8.91256882,14.4680149 C8.91256882,14.2562446 8.98392514,14.0790047 9.12663992,13.9362899 C9.2693547,13.7935752 9.44199096,13.7222188 9.64455388,13.7222188 C9.8563242,13.7222188 10.0335641,13.7935752 10.1762789,13.9362899 C10.3189937,14.0790047 10.39035,14.2562446 10.39035,14.4680149 C10.39035,14.6613705 10.3189937,14.8317049 10.1762789,14.9790234 C10.0335641,15.1263419 9.8563242,15.2 9.64455388,15.2 Z" id="?" fill="#0077B5"></path>
                        <circle id="Oval-5" stroke="#0077B5" cx="10" cy="10" r="10"></circle>
                    </g>
                </g>
            </g>
        </g>
    </g>
</svg>