<svg xmlns="http://www.w3.org/2000/svg" width="19" height="19" viewBox="0 0 19 19">
    <path fill="#FFF" fill-rule="evenodd" d="M5.078 11.676l.195.342L0 17.34 1.66 19l5.274-5.322.341.244c1.302.814 2.653 1.22 4.053 1.22 2.05 0 3.8-.732 5.25-2.197 1.448-1.465 2.172-3.222 2.172-5.273 0-2.05-.724-3.8-2.173-5.25C15.13.975 13.38.25 11.328.25c-2.05 0-3.8.724-5.249 2.173C4.631 3.87 3.906 5.62 3.906 7.672a7.36 7.36 0 0 0 1.172 4.004zm2.1-8.155c1.14-1.139 2.523-1.708 4.15-1.708 1.628 0 3.011.57 4.15 1.708 1.14 1.14 1.71 2.523 1.71 4.15 0 1.628-.57 3.012-1.71 4.151-1.139 1.14-2.522 1.71-4.15 1.71-1.627 0-3.01-.57-4.15-1.71C6.006 10.65 5.42 9.267 5.42 7.672c0-1.595.586-2.979 1.758-4.15z"/>
</svg>
